<svg width="24" height="25" viewBox="0 0 24 25" fill="none" xmlns="http://www.w3.org/2000/svg"><path d="M11.248 8.5V11.75M11.248 8.5V6.5C11.248 6.16848 11.3797 5.85054 11.6142 5.61612C11.8486 5.3817 12.1665 5.25 12.498 5.25C12.8296 5.25 13.1475 5.3817 13.3819 5.61612C13.6163 5.85054 13.748 6.16848 13.748 6.5V11.75M11.248 8.5C11.248 8.16848 11.1163 7.85054 10.8819 7.61612C10.6475 7.3817 10.3296 7.25 9.99805 7.25C9.66652 7.25 9.34858 7.3817 9.11416 7.61612C8.87974 7.85054 8.74805 8.16848 8.74805 8.5V13.75L7.14405 11.827C6.53305 11.094 5.41605 11.073 4.75305 11.761M4.75305 11.761L6.73105 16.631C7.10534 17.5528 7.74614 18.3421 8.57147 18.8977C9.39679 19.4533 10.3691 19.7501 11.364 19.75H15.248C17.458 19.75 18.748 17.96 18.748 15.75V9.5C18.748 9.16848 18.6163 8.85054 18.3819 8.61612C18.1475 8.3817 17.8296 8.25 17.498 8.25C17.1665 8.25 16.8486 8.3817 16.6142 8.61612C16.3797 8.85054 16.248 9.16848 16.248 9.5M4.75305 11.761C4.74805 11.767 4.75005 11.755 4.75305 11.761ZM13.748 9.5V7.5C13.748 7.16848 13.8797 6.85054 14.1142 6.61612C14.3486 6.3817 14.6665 6.25 14.998 6.25C15.3296 6.25 15.6475 6.3817 15.8819 6.61612C16.1163 6.85054 16.248 7.16848 16.248 7.5V11.75" stroke="currentColor" stroke-width="1.3" stroke-linecap="round" stroke-linejoin="round"></path></svg>